<?xml version="1.0" standalone="no"?>
<!DOCTYPE svg PUBLIC "-//W3C//DTD SVG 20010904//EN"
 "http://www.w3.org/TR/2001/REC-SVG-20010904/DTD/svg10.dtd">
<svg version="1.0" xmlns="http://www.w3.org/2000/svg"
 width="2000.000000pt" height="1247.000000pt" viewBox="0 0 2000.000000 1247.000000"
 preserveAspectRatio="xMidYMid meet">

<g transform="translate(0.000000,1247.000000) scale(0.100000,-0.100000)"
fill="#000000" stroke="none">
<path d="M5930 12464 c-25 -2 -108 -8 -185 -14 -1033 -80 -2050 -432 -2930
-1015 -672 -445 -1261 -1026 -1718 -1695 -1189 -1744 -1409 -3991 -581 -5947
65 -154 240 -506 324 -653 493 -857 1191 -1595 2015 -2133 762 -496 1619 -818
2525 -946 507 -72 1074 -80 1591 -21 2501 285 4596 2065 5284 4491 54 188 135
535 135 575 0 2 -17 4 -38 4 l-37 0 -29 -142 c-265 -1320 -1025 -2583 -2086
-3465 -1411 -1175 -3250 -1657 -5060 -1328 -1400 255 -2687 1006 -3608 2105
-654 782 -1107 1718 -1311 2710 -145 707 -164 1466 -55 2180 352 2302 1978
4211 4198 4929 906 293 1886 371 2836 225 2404 -369 4381 -2143 5008 -4496 27
-101 62 -247 78 -325 l29 -143 37 0 c21 0 38 2 38 4 0 41 -88 417 -139 593
-444 1535 -1437 2818 -2821 3648 -183 109 -638 335 -835 413 -576 230 -1125
363 -1765 428 -145 14 -787 27 -900 18z"/>
<path d="M6423 7126 c-126 -31 -230 -113 -279 -220 -41 -89 -45 -177 -42 -886
l3 -665 148 -3 147 -3 0 705 c0 525 3 712 12 731 26 58 40 60 431 63 l357 3 0
145 0 144 -362 -1 c-254 0 -379 -4 -415 -13z"/>
<path d="M11300 6995 l0 -135 145 0 145 0 0 135 0 135 -145 0 -145 0 0 -135z"/>
<path d="M9130 7012 c-19 -9 -45 -32 -57 -51 l-23 -34 0 -788 0 -789 145 0
145 0 2 496 3 495 264 -463 c145 -255 275 -477 288 -495 44 -60 142 -68 201
-18 17 14 139 219 298 498 l269 474 3 -493 2 -494 150 0 150 0 0 777 c0 764 0
777 -21 819 -21 45 -81 84 -127 84 -39 0 -88 -27 -116 -61 -14 -19 -176 -294
-359 -613 -183 -318 -336 -578 -341 -578 -5 0 -165 272 -356 604 -337 586
-347 604 -390 626 -53 27 -84 28 -130 4z"/>
<path d="M3837 7003 c-4 -3 -7 -377 -7 -830 l0 -823 150 0 150 0 0 830 0 830
-143 0 c-79 0 -147 -3 -150 -7z"/>
<path d="M4555 6590 c-17 -5 -41 -19 -54 -31 -51 -48 -51 -48 -51 -649 l0
-561 148 3 147 3 3 473 2 473 308 -3 307 -3 48 -28 c57 -34 101 -97 116 -168
7 -30 11 -191 11 -399 l0 -350 145 0 145 0 0 373 c0 211 -5 400 -11 437 -24
151 -132 299 -269 368 -128 64 -135 65 -570 68 -220 2 -408 -1 -425 -6z"/>
<path d="M6530 6450 l0 -150 335 0 335 0 0 150 0 150 -335 0 -335 0 0 -150z"/>
<path d="M7711 6589 c-167 -29 -300 -159 -330 -324 -14 -74 -14 -489 -1 -574
25 -152 131 -271 285 -318 53 -16 99 -18 400 -18 329 0 342 1 407 23 127 44
214 128 255 246 16 45 18 88 18 346 0 260 -2 301 -18 350 -27 80 -82 155 -145
200 -98 71 -115 73 -487 76 -181 1 -354 -2 -384 -7z m698 -305 c45 -32 51 -67
51 -311 0 -197 -2 -233 -18 -263 -29 -59 -35 -60 -385 -60 l-319 0 -34 34 -34
34 0 254 c1 270 4 288 51 314 19 10 98 13 344 14 281 0 323 -2 344 -16z"/>
<path d="M11300 5975 l0 -625 145 0 145 0 0 625 0 625 -145 0 -145 0 0 -625z"/>
<path d="M11986 6590 c-41 -13 -84 -58 -96 -99 -6 -22 -10 -255 -10 -588 l0
-553 150 0 150 0 0 475 0 475 298 0 c291 0 298 -1 348 -24 28 -13 65 -41 82
-62 59 -70 62 -99 62 -501 l0 -363 145 0 145 0 0 393 c0 318 -3 404 -15 451
-53 205 -217 353 -430 391 -91 16 -778 20 -829 5z"/>
<path d="M13831 6589 c-121 -21 -227 -106 -284 -227 l-32 -67 -3 -293 c-4
-340 1 -375 61 -465 52 -76 119 -128 206 -158 62 -22 84 -23 374 -27 l307 -4
0 141 0 141 -272 0 c-156 0 -289 5 -310 10 -20 6 -48 24 -62 41 l-26 31 0 262
c0 369 -26 346 400 346 308 0 334 -3 374 -49 26 -29 33 -109 12 -149 -34 -66
-39 -67 -363 -70 l-293 -3 0 -135 0 -135 333 3 332 3 58 29 c70 36 145 108
176 171 118 236 24 495 -212 585 -60 23 -71 24 -392 26 -181 1 -354 -2 -384
-7z"/>
<path d="M15435 6593 c-182 -24 -322 -154 -354 -327 -7 -37 -11 -223 -11 -488
l0 -428 150 0 150 0 0 435 c0 315 3 441 12 460 24 53 36 55 428 55 l360 0 0
150 0 150 -352 -1 c-194 -1 -366 -4 -383 -6z"/>
</g>
</svg>
