<svg xmlns="http://www.w3.org/2000/svg" version="1.1" xmlnsXlink="http://www.w3.org/1999/xlink" xmlnsSvgjs="http://svgjs.dev/svgjs" width="1000" height="623" viewBox="0 0 1000 623"><g transform="matrix(1,0,0,1,-0.6060606060606233,0.2522267206477409)"><svg viewBox="0 0 396 247" data-background-color="#282634" preserveAspectRatio="xMidYMid meet" height="623" width="1000" xmlns="http://www.w3.org/2000/svg" xmlnsXlink="http://www.w3.org/1999/xlink"><g id="tight-bounds" transform="matrix(1,0,0,1,0.2400000000000091,-0.09999999999999432)"><svg viewBox="0 0 395.52 247.2" height="247.2" width="395.52"><g><svg></svg></g><g><svg viewBox="0 0 395.52 247.2" height="247.2" width="395.52"><g transform="matrix(1,0,0,1,75.54432,105.62542223887587)"><svg viewBox="0 0 244.43135999999998 35.94915552224824" height="35.94915552224824" width="244.43135999999998"><g><svg viewBox="0 0 244.43135999999998 35.94915552224824" height="35.94915552224824" width="244.43135999999998"><g><svg viewBox="0 0 244.43135999999998 35.94915552224824" height="35.94915552224824" width="244.43135999999998"><g><svg viewBox="0 0 244.43135999999998 35.94915552224824" height="35.94915552224824" width="244.43135999999998"><g id="textblocktransform"><svg viewBox="0 0 244.43135999999998 35.94915552224824" height="35.94915552224824" width="244.43135999999998" id="textblock"><g><svg viewBox="0 0 244.43135999999998 35.94915552224824" height="35.94915552224824" width="244.43135999999998"><g transform="matrix(1,0,0,1,0,0)"><svg width="244.43135999999998" viewBox="3.740000009536743 -37.84000015258789 260.6000061035156 38.33000183105469" height="35.94915552224824" data-palette-color="#ff4057"><path d="M10.08-35.01L10.08 0 3.74 0 3.74-35.01 10.08-35.01ZM46.04-14.65L46.04 0 39.69 0 39.69-14.65Q39.69-15.89 39.27-16.88 38.84-17.87 38.11-18.58 37.38-19.29 36.39-19.67 35.4-20.04 34.25-20.04L34.25-20.04 23.14-20.04 23.14 0 16.79 0 16.79-23.24Q16.79-23.9 17.04-24.48 17.28-25.05 17.72-25.48 18.16-25.9 18.75-26.15 19.33-26.39 19.99-26.39L19.99-26.39 34.3-26.39Q35.5-26.39 36.83-26.12 38.16-25.85 39.46-25.26 40.77-24.66 41.95-23.74 43.14-22.83 44.05-21.52 44.97-20.21 45.51-18.51 46.04-16.8 46.04-14.65L46.04-14.65ZM74.97-26.39L74.97-20.04 60.62-20.04 60.62-26.39 74.97-26.39ZM74.97-37.84L74.97-31.49 60.66-31.49Q59.37-31.49 58.71-30.85 58.05-30.2 58.05-28.96L58.05-28.96 58.05 0 51.7 0 51.7-28.96Q51.7-30.59 52.12-31.88 52.53-33.18 53.23-34.17 53.93-35.16 54.83-35.85 55.73-36.55 56.72-36.99 57.71-37.43 58.71-37.63 59.71-37.84 60.62-37.84L60.62-37.84 74.97-37.84ZM107.73-17.5L107.73-8.91Q107.73-7.28 107.32-5.97 106.9-4.66 106.22-3.67 105.53-2.69 104.63-1.99 103.73-1.29 102.74-0.85 101.75-0.42 100.74-0.21 99.72 0 98.82 0L98.82 0 87.37 0Q86.05 0 84.49-0.46 82.93-0.93 81.6-1.99 80.27-3.05 79.37-4.75 78.48-6.45 78.48-8.91L78.48-8.91 78.48-17.5Q78.48-19.95 79.37-21.64 80.27-23.34 81.6-24.4 82.93-25.46 84.49-25.93 86.05-26.39 87.37-26.39L87.37-26.39 98.82-26.39Q101.26-26.39 102.97-25.51 104.68-24.63 105.73-23.3 106.78-21.97 107.26-20.41 107.73-18.85 107.73-17.5L107.73-17.5ZM101.38-8.91L101.38-17.46Q101.38-18.77 100.72-19.41 100.07-20.04 98.82-20.04L98.82-20.04 87.42-20.04Q86.15-20.04 85.49-19.4 84.83-18.75 84.83-17.5L84.83-17.5 84.83-8.91Q84.83-7.67 85.49-7.01 86.15-6.35 87.42-6.35L87.42-6.35 98.82-6.35Q100.11-6.35 100.75-7.01 101.38-7.67 101.38-8.91L101.38-8.91ZM154.58-32.3L154.58 0 148.18 0 148.18-20.85 136.93-1.05Q136.51-0.29 135.77 0.1 135.02 0.49 134.17 0.49L134.17 0.49Q133.34 0.49 132.62 0.1 131.9-0.29 131.48-1.05L131.48-1.05 120.18-20.85 120.18 0 113.83 0 113.83-32.3Q113.83-33.4 114.48-34.25 115.13-35.11 116.18-35.4L116.18-35.4Q116.69-35.52 117.2-35.49 117.71-35.45 118.19-35.27 118.67-35.08 119.06-34.75 119.45-34.42 119.72-33.96L119.72-33.96 134.17-8.84 148.62-33.96Q149.18-34.89 150.17-35.28 151.16-35.67 152.24-35.4L152.24-35.4Q153.26-35.11 153.92-34.25 154.58-33.4 154.58-32.3L154.58-32.3ZM167.69-37.55L167.69-31.81 161.34-31.81 161.34-37.55 167.69-37.55ZM167.69-26.39L167.69 0 161.34 0 161.34-26.39 167.69-26.39ZM203.01-14.65L203.01 0 196.66 0 196.66-14.65Q196.66-15.89 196.24-16.88 195.81-17.87 195.08-18.58 194.35-19.29 193.36-19.67 192.37-20.04 191.22-20.04L191.22-20.04 180.11-20.04 180.11 0 173.76 0 173.76-23.24Q173.76-23.9 174.01-24.48 174.25-25.05 174.69-25.48 175.13-25.9 175.72-26.15 176.3-26.39 176.96-26.39L176.96-26.39 191.27-26.39Q192.47-26.39 193.8-26.12 195.13-25.85 196.43-25.26 197.74-24.66 198.92-23.74 200.11-22.83 201.02-21.52 201.94-20.21 202.48-18.51 203.01-16.8 203.01-14.65L203.01-14.65ZM236.97-17.65L236.97-17.65Q236.97-16.33 236.51-14.81 236.04-13.28 235-11.98 233.97-10.67 232.29-9.79 230.62-8.91 228.23-8.91L228.23-8.91 216.78-8.91 216.78-14.94 228.23-14.94Q229.52-14.94 230.23-15.73 230.94-16.53 230.94-17.7L230.94-17.7Q230.94-18.95 230.15-19.65 229.35-20.36 228.23-20.36L228.23-20.36 216.78-20.36Q215.49-20.36 214.78-19.57 214.07-18.77 214.07-17.6L214.07-17.6 214.07-8.74Q214.07-7.47 214.86-6.76 215.66-6.05 216.83-6.05L216.83-6.05 228.23-6.05 228.23 0 216.78 0Q215.46 0 213.94-0.46 212.41-0.93 211.1-1.97 209.8-3 208.92-4.68 208.04-6.35 208.04-8.74L208.04-8.74 208.04-17.65Q208.04-18.97 208.5-20.5 208.97-22.02 210-23.33 211.04-24.63 212.71-25.51 214.39-26.39 216.78-26.39L216.78-26.39 228.23-26.39Q229.55-26.39 231.07-25.93 232.6-25.46 233.91-24.43 235.21-23.39 236.09-21.72 236.97-20.04 236.97-17.65ZM264.34-26.39L264.34-20.04 250.05-20.04Q248.76-20.04 248.1-19.4 247.44-18.75 247.44-17.5L247.44-17.5 247.44 0 241.09 0 241.09-17.5Q241.09-19.14 241.51-20.43 241.92-21.73 242.62-22.72 243.31-23.71 244.22-24.4 245.12-25.1 246.11-25.54 247.1-25.98 248.11-26.18 249.13-26.39 250-26.39L250-26.39 264.34-26.39Z" opacity="1" transform="matrix(1,0,0,1,0,0)" fill="#ff4057" class="undefined-text-0" data-fill-palette-color="primary" id="text-0"></path></svg></g></svg></g></svg></g></svg></g></svg></g></svg></g></svg></g><g><path d="M0 123.6c0-68.262 55.338-123.6 123.6-123.6 60.677 0 111.143 43.723 121.609 101.382h-1.649c-10.445-56.759-60.181-99.761-119.96-99.761-67.367 0-121.979 54.612-121.979 121.979 0 67.367 54.612 121.979 121.979 121.979 59.779 0 109.515-43.003 119.96-99.761l1.649 0c-10.466 57.659-60.931 101.382-121.609 101.382-68.262 0-123.6-55.338-123.6-123.6z" fill="#ff4057" stroke="transparent" data-fill-palette-color="tertiary"></path></g></svg></g><defs></defs></svg><rect width="395.52" height="247.2" fill="none" stroke="none" visibility="hidden"></rect></g></svg></g></svg>