<?xml version="1.0" standalone="no"?>
<!DOCTYPE svg PUBLIC "-//W3C//DTD SVG 20010904//EN"
 "http://www.w3.org/TR/2001/REC-SVG-20010904/DTD/svg10.dtd">
<svg version="1.0" xmlns="http://www.w3.org/2000/svg"
 width="1000.000000pt" height="282.000000pt" viewBox="0 0 1000.000000 282.000000"
 preserveAspectRatio="xMidYMid meet">

<g transform="translate(0.000000,282.000000) scale(0.100000,-0.100000)"
fill="#000000" stroke="none">
<path d="M1325 2809 c-429 -27 -828 -260 -1070 -624 -101 -152 -166 -310 -207
-498 -18 -83 -22 -135 -22 -277 0 -195 18 -304 75 -467 169 -478 590 -832
1091 -917 112 -19 329 -22 439 -6 583 87 1040 519 1171 1108 32 140 32 424 0
564 -98 441 -372 792 -767 983 -220 106 -451 150 -710 134z m350 -124 c533
-110 937 -523 1030 -1053 9 -49 16 -146 16 -222 0 -149 -17 -265 -57 -391
-123 -391 -436 -710 -820 -838 -158 -53 -242 -66 -424 -65 -141 0 -181 4 -275
26 -392 92 -702 335 -880 689 -95 190 -135 363 -135 579 0 216 40 389 135 579
194 387 563 652 990 710 97 14 324 6 420 -14z"/>
<path d="M1336 2133 c-68 -41 -76 -48 -62 -59 10 -7 109 -65 221 -130 l205
-118 2 -258 3 -257 83 46 82 47 -2 264 -3 264 -215 124 c-118 68 -219 124
-225 124 -5 0 -45 -21 -89 -47z"/>
<path d="M980 1926 l-215 -124 -3 -102 c-1 -56 1 -100 5 -97 4 2 103 59 219
126 116 66 215 121 220 121 5 0 106 -56 224 -124 l215 -125 3 96 c1 53 -1 100
-5 104 -16 15 -426 249 -437 249 -6 0 -108 -56 -226 -124z"/>
<path d="M1920 1633 l0 -258 -215 -123 c-118 -68 -217 -128 -220 -132 -4 -7
110 -78 157 -98 4 -2 107 54 228 124 l220 127 0 263 0 263 -77 43 c-43 24 -81
45 -85 46 -5 2 -8 -113 -8 -255z"/>
<path d="M978 1671 l-218 -126 0 -261 0 -261 80 -47 c44 -25 82 -46 85 -46 2
0 6 116 7 257 l3 257 218 125 c119 69 217 129 217 132 0 8 -159 100 -169 98
-3 -1 -104 -58 -223 -128z"/>
<path d="M1063 1461 l-83 -46 0 -261 0 -261 222 -128 222 -128 51 27 c27 14
67 36 88 49 l39 23 -226 130 -225 129 -3 256 -3 256 -82 -46z"/>
<path d="M1202 1120 l3 -103 180 -104 c99 -57 198 -115 221 -128 l40 -24 220
127 219 127 3 102 3 103 -222 -129 -222 -128 -181 105 c-100 57 -200 115 -224
129 l-43 25 3 -102z"/>
<path d="M3729 1990 c-119 -14 -219 -79 -255 -167 -21 -48 -28 -142 -15 -188
28 -106 96 -164 289 -247 75 -32 156 -70 180 -84 62 -36 93 -89 99 -166 7 -92
-21 -143 -102 -183 -56 -28 -67 -30 -175 -30 -100 1 -125 4 -190 28 -41 15
-82 30 -91 33 -13 4 -20 -6 -32 -41 l-16 -46 43 -20 c121 -53 344 -68 462 -31
82 25 148 73 181 129 22 37 28 62 31 128 5 91 -6 139 -44 196 -37 55 -99 94
-260 164 -167 73 -217 103 -244 147 -39 64 -34 154 11 212 67 85 265 100 415
32 l53 -24 15 39 c9 22 16 43 16 48 0 5 -21 18 -47 29 -93 39 -214 54 -324 42z"/>
<path d="M4453 1970 c-29 -4 -64 -11 -78 -14 l-25 -6 0 -550 0 -550 55 0 55 0
0 213 0 214 153 6 c233 10 337 43 415 132 52 59 72 119 72 216 0 183 -97 292
-297 334 -72 16 -260 18 -350 5z m334 -101 c146 -28 229 -160 193 -310 -10
-39 -24 -63 -55 -95 -62 -61 -115 -75 -308 -81 l-157 -5 2 248 3 249 75 5 c87
7 173 3 247 -11z"/>
<path d="M8162 1969 c-115 -15 -102 58 -102 -570 l0 -549 60 0 60 0 0 225 0
225 118 0 c64 0 126 3 138 6 17 5 32 -10 86 -83 82 -110 182 -263 214 -325
l24 -48 60 0 60 0 -31 62 c-44 87 -120 207 -201 316 -37 50 -68 94 -68 97 0 2
26 17 57 31 128 61 179 150 171 303 -6 132 -54 208 -168 266 -97 49 -297 68
-478 44z m366 -106 c116 -35 182 -137 168 -260 -7 -64 -23 -98 -63 -135 -51
-49 -102 -61 -285 -66 l-168 -4 0 241 0 240 78 3 c118 5 212 -2 270 -19z"/>
<path d="M5310 1410 l0 -560 345 0 345 0 0 45 0 45 -290 0 -290 0 0 225 0 225
241 0 240 0 -3 48 -3 47 -237 3 -238 2 0 195 0 195 270 0 270 0 0 45 0 45
-325 0 -325 0 0 -560z"/>
<path d="M6210 1410 l0 -560 55 0 55 0 0 275 0 276 29 -16 c116 -60 359 -286
475 -442 l69 -93 59 0 c35 0 58 4 56 10 -1 5 -32 51 -68 102 -76 109 -290 328
-407 418 l-83 63 263 261 262 261 -60 3 -61 3 -258 -256 c-142 -140 -262 -255
-267 -255 -5 0 -9 114 -9 255 l0 255 -55 0 -55 0 0 -560z"/>
<path d="M7060 1925 l0 -45 180 0 180 0 0 -515 0 -515 55 0 55 0 0 515 0 515
180 0 180 0 0 45 0 45 -415 0 -415 0 0 -45z"/>
<path d="M9349 1883 c-78 -168 -198 -461 -303 -741 -58 -156 -106 -285 -106
-288 0 -3 26 -4 57 -2 l56 3 56 153 55 152 272 0 271 0 28 -77 c16 -43 41
-113 57 -155 l30 -78 59 0 c32 0 59 2 59 4 0 7 -179 474 -238 621 -62 155
-140 337 -187 438 l-26 57 -50 0 -50 0 -40 -87z m150 -185 c63 -150 171 -427
171 -440 0 -4 -106 -8 -235 -8 -129 0 -235 2 -235 4 0 19 228 586 235 586 2 0
30 -64 64 -142z"/>
</g>
</svg>
